<?xml version="1.0" standalone="no"?>
<!DOCTYPE svg PUBLIC "-//W3C//DTD SVG 20010904//EN"
 "http://www.w3.org/TR/2001/REC-SVG-20010904/DTD/svg10.dtd">
<svg version="1.0" xmlns="http://www.w3.org/2000/svg"
 width="300.000000pt" height="155.000000pt" viewBox="0 0 300.000000 155.000000"
 preserveAspectRatio="xMidYMid meet">
<metadata>
Created by potrace 1.10, written by Peter Selinger 2001-2011
</metadata>
<g transform="translate(0.000000,155.000000) scale(0.100000,-0.100000)"
fill="#000000" stroke="none">
<path d="M282 1409 c-56 -28 -117 -99 -137 -160 -25 -73 -25 -226 -1 -261 10
-16 26 -28 36 -28 23 0 46 69 32 96 -22 42 -15 147 14 205 7 14 29 41 50 58
33 29 41 32 83 27 72 -9 102 -18 108 -32 3 -8 10 -14 15 -14 21 0 89 -64 114
-106 35 -59 45 -181 20 -229 -23 -43 -67 -67 -132 -71 -30 -2 -54 -3 -54 -2
-1 2 -3 21 -6 43 -11 86 -45 145 -83 145 -23 0 -11 -85 36 -249 19 -68 22 -86
28 -189 6 -110 23 -139 64 -113 12 8 13 28 1 141 -7 72 -10 133 -7 137 4 3 30
8 59 10 l54 4 57 -58 c34 -35 72 -88 92 -128 37 -74 94 -141 133 -156 13 -5
48 -9 78 -9 51 0 56 2 98 46 l45 46 41 -41 c29 -28 53 -43 80 -47 27 -4 41
-13 49 -30 12 -27 33 -31 51 -9 14 17 8 163 -8 206 -5 13 -15 49 -22 79 -16
67 -29 90 -52 90 -15 0 -17 -8 -13 -64 2 -35 11 -81 19 -101 9 -21 16 -55 16
-76 0 -31 -4 -39 -19 -39 -54 0 -105 85 -122 204 -12 93 -34 153 -60 166 -31
17 -103 11 -149 -12 -54 -27 -83 -79 -84 -149 -2 -72 -15 -74 -59 -9 -9 14
-41 49 -69 78 -49 50 -51 54 -38 75 71 110 80 201 30 305 -28 58 -100 142
-122 142 -6 0 -25 13 -43 29 -19 16 -60 37 -92 46 -32 9 -65 18 -73 20 -8 3
-34 -5 -58 -16z m172 -565 c7 -17 -26 -28 -36 -12 -4 7 -8 16 -8 20 0 12 39 4
44 -8z m544 -37 c6 -7 16 -34 23 -60 10 -42 9 -56 -10 -116 -12 -38 -30 -76
-40 -86 -18 -16 -21 -15 -50 15 -47 50 -71 209 -35 244 19 19 97 21 112 3z
m-153 -187 c4 -22 15 -50 26 -64 25 -31 24 -39 -3 -30 -31 9 -87 74 -88 100 0
20 36 46 52 38 3 -2 9 -22 13 -44z m237 -5 c2 -14 -3 -21 -19 -23 -26 -4 -27
-2 -11 33 12 27 24 23 30 -10z"/>
<path d="M1215 1108 c-11 -6 -22 -14 -25 -17 -3 -4 -16 -11 -30 -17 -32 -14
-54 -56 -47 -86 4 -13 20 -38 37 -55 24 -25 39 -33 66 -33 41 0 89 22 98 45
12 33 5 83 -16 115 -32 47 -58 62 -83 48z m35 -98 c12 -7 12 -13 4 -27 -24
-39 -76 -24 -55 16 13 23 28 26 51 11z"/>
<path d="M1502 890 c-56 -34 -100 -80 -117 -122 -18 -46 -12 -74 22 -104 21
-18 112 -58 138 -60 75 -6 129 -44 123 -84 -5 -33 -130 -64 -196 -49 -25 5
-51 14 -57 18 -20 16 -55 20 -55 6 0 -33 82 -63 197 -72 46 -3 81 -9 78 -12
-8 -7 -71 -24 -210 -56 -60 -14 -159 -37 -220 -52 -110 -25 -137 -31 -380 -78
-71 -14 -161 -35 -200 -46 -38 -12 -101 -26 -140 -33 -65 -10 -70 -13 -70 -36
0 -24 2 -25 68 -23 38 1 85 8 105 14 100 30 1098 19 1837 -21 99 -5 241 -10
315 -12 74 -1 150 -5 167 -10 40 -11 96 14 91 40 -3 15 -21 17 -148 19 -80 1
-235 7 -345 13 -351 19 -1087 40 -1352 39 -140 0 -258 2 -261 5 -10 11 7 19
45 22 21 2 65 10 98 18 33 8 103 24 155 36 52 11 109 25 125 30 29 8 169 40
270 62 28 6 97 24 155 42 84 25 123 31 198 31 l93 1 35 36 c34 36 84 58 134
58 14 0 41 4 60 9 19 6 49 12 65 14 84 14 154 71 134 109 -17 32 -38 32 -102
0 -81 -40 -110 -46 -139 -31 -39 21 -85 88 -115 169 l-21 55 -74 0 c-67 0 -77
-3 -109 -29 -53 -45 -73 -97 -65 -174 4 -35 14 -81 22 -103 19 -45 10 -64 -34
-72 -15 -3 -49 -13 -75 -22 -26 -10 -50 -15 -53 -12 -3 2 4 20 15 38 29 48 27
100 -4 132 -27 27 -40 32 -155 67 -98 30 -122 46 -114 74 12 41 68 87 113 93
51 7 64 -6 55 -54 -8 -43 10 -43 32 -2 41 81 16 139 -60 139 -23 0 -55 -9 -74
-20z m542 -143 c31 -40 32 -62 7 -141 -29 -92 -87 -124 -130 -70 -42 53 -39
161 5 214 37 43 84 42 118 -3z m112 -136 c14 -17 34 -33 45 -36 10 -4 17 -11
13 -16 -3 -5 -9 -7 -14 -4 -5 3 -21 0 -37 -7 -15 -6 -32 -10 -36 -9 -12 2 -77
-39 -77 -48 0 -9 -46 -31 -63 -31 -7 1 5 10 25 21 38 19 63 55 72 100 12 67
33 76 72 30z"/>
</g>
</svg>
