<?xml version="1.0" encoding="UTF-8"?>
<svg version="1.1" xmlns="http://www.w3.org/2000/svg" width="485" height="514">
<path d="M0 0 C0.77601563 0.08507812 1.55203125 0.17015625 2.3515625 0.2578125 C4.375 0.875 4.375 0.875 6.375 3.875 C6.808125 5.5146875 6.808125 5.5146875 7.25 7.1875 C8.14813637 10.91662018 8.14813637 10.91662018 10.48828125 13.59375 C12.85504882 17.70986751 12.4845109 20.58189466 11.6875 25.0625 C11.58244141 25.77341797 11.47738281 26.48433594 11.36914062 27.21679688 C10.91017492 30.20992906 10.33374307 32.99877078 9.375 35.875 C9.4067512 37.37596573 9.47475758 38.87626469 9.5625 40.375 C9.63513604 45.86628493 8.65245058 50.80733639 7.4375 56.125 C5.54627113 64.44361858 4.7546759 72.34228376 4.375 80.875 C4.08506157 84.21343392 3.74332822 87.54437244 3.375 90.875 C4.035 91.205 4.695 91.535 5.375 91.875 C5.6225 91.318125 5.87 90.76125 6.125 90.1875 C7.375 87.875 7.375 87.875 9.15234375 85.71875 C11.80475021 82.32516142 13.9659622 78.74570038 16.1875 75.0625 C19.3856604 69.83889695 22.61912689 65.08875272 26.84375 60.625 C29.0620675 58.08978 30.68260992 55.27105065 32.33203125 52.34375 C32.84830078 51.61671875 32.84830078 51.61671875 33.375 50.875 C34.035 50.875 34.695 50.875 35.375 50.875 C35.48714844 50.29105469 35.59929687 49.70710938 35.71484375 49.10546875 C36.91027748 45.06645891 39.76101808 42.11135857 42.375 38.875 C43.01179687 38.05515625 43.64859375 37.2353125 44.3046875 36.390625 C47.43469511 32.56641337 49.36088105 30.21303965 54.125 28.625 C57.62247716 28.8940367 59.00636597 29.31687525 61.375 31.875 C61.375 32.535 61.375 33.195 61.375 33.875 C62.035 33.875 62.695 33.875 63.375 33.875 C64.75 35.125 64.75 35.125 66.375 36.875 C67.055625 37.4525 67.73625 38.03 68.4375 38.625 C72.57130274 43.42554512 72.67294672 49.66192265 73.12890625 55.73828125 C73.25732638 57.92460167 73.25732638 57.92460167 74.375 59.875 C75.89769939 94.09095092 75.89769939 94.09095092 69.375 103.875 C68.81909231 105.77620429 68.32540838 107.69607714 67.875 109.625 C67.48634766 111.23568359 67.48634766 111.23568359 67.08984375 112.87890625 C66.85394531 113.86761719 66.61804688 114.85632813 66.375 115.875 C64.64311589 122.68707751 61.93330522 128.81832437 58.75 135.0625 C57.32195354 137.80989221 57.32195354 137.80989221 56.5 140.625 C54.56209518 146.22339172 51.81304346 151.49669735 48.75 156.5625 C47.25502519 158.95692112 47.25502519 158.95692112 46.03125 162.05859375 C44.40025772 165.9118005 42.49312667 169.57375679 40.5 173.25 C40.14848877 173.90194336 39.79697754 174.55388672 39.43481445 175.22558594 C38.7364904 176.51869552 38.03674715 177.8110399 37.33544922 179.10253906 C36.49939781 180.64543007 35.67270075 182.19338274 34.84765625 183.7421875 C34.42355469 184.52851563 33.99945313 185.31484375 33.5625 186.125 C33.20542969 186.79015625 32.84835938 187.4553125 32.48046875 188.140625 C31.375 189.875 31.375 189.875 29.80078125 191.421875 C28.11317368 192.92931469 28.11317368 192.92931469 27.375 195.875 C25.70833333 197.54166667 24.04166667 199.20833333 22.375 200.875 C21.653125 201.968125 20.93125 203.06125 20.1875 204.1875 C19.589375 205.074375 18.99125 205.96125 18.375 206.875 C17.715 206.875 17.055 206.875 16.375 206.875 C16.15070313 207.40867188 15.92640625 207.94234375 15.6953125 208.4921875 C13.93600031 211.66727755 11.62167984 214.27599523 9.25 217 C8.2501835 218.16310188 7.25149405 219.32717351 6.25390625 220.4921875 C5.76293457 221.06549805 5.27196289 221.63880859 4.76611328 222.22949219 C2.19270265 225.27350546 -0.25710254 228.41418268 -2.7109375 231.5546875 C-4.625 233.875 -4.625 233.875 -6.7890625 236.0703125 C-13.19181717 242.56619815 -15.40564763 249.0827265 -15.75 258.17578125 C-15.93254329 260.79200302 -15.93254329 260.79200302 -14.625 261.875 C-14.52362943 264.1856528 -14.49537888 266.49962927 -14.5 268.8125 C-14.49742187 270.07964844 -14.49484375 271.34679687 -14.4921875 272.65234375 C-14.54406719 275.64857358 -14.78054997 278.58046471 -15.109375 281.55859375 C-15.53007976 285.46412382 -15.73598773 289.33083876 -15.8359375 293.2578125 C-15.86429688 294.36253906 -15.89265625 295.46726562 -15.921875 296.60546875 C-15.97413423 298.87613229 -16.01835191 301.14699458 -16.0546875 303.41796875 C-16.23878385 309.97640132 -17.069766 314.84902035 -19.625 320.875 C-19.625 322.195 -19.625 323.515 -19.625 324.875 C-18.696875 323.6375 -18.696875 323.6375 -17.75 322.375 C-17.04875 321.55 -16.3475 320.725 -15.625 319.875 C-14.965 319.875 -14.305 319.875 -13.625 319.875 C-13.625 318.885 -13.625 317.895 -13.625 316.875 C-12.93792969 316.93171875 -12.25085938 316.9884375 -11.54296875 317.046875 C-7.86037845 316.82996205 -5.28217423 315.66576213 -1.9375 314.125 C-0.79925781 313.61453125 0.33898437 313.1040625 1.51171875 312.578125 C4.55199446 310.76972089 5.0345915 309.98400304 6.375 306.875 C8.14453125 305.49609375 8.14453125 305.49609375 10.1875 304.3125 C12.54314739 302.94402139 14.73357523 301.61262788 16.9375 300 C20.39238583 298.40543731 22.74438237 298.98447115 26.375 299.875 C27.035 300.535 27.695 301.195 28.375 301.875 C28.2734375 303.96875 28.2734375 303.96875 27.75 306.375 C27.59273437 307.1690625 27.43546875 307.963125 27.2734375 308.78125 C26.131882 311.44157063 24.96457494 311.75925128 22.375 312.875 C21.78429986 314.82103274 21.78429986 314.82103274 21.375 316.875 C19.9375 318.625 19.9375 318.625 18.375 319.875 C17.715 319.875 17.055 319.875 16.375 319.875 C14.33438459 327.05359349 13.00130271 333.40105426 13.375 340.875 C16.89881687 338.32895403 16.89881687 338.32895403 19.375 334.875 C20.035 334.875 20.695 334.875 21.375 334.875 C21.643125 334.029375 21.91125 333.18375 22.1875 332.3125 C23.375 328.875 23.375 328.875 24.9375 325.6875 C26.33274652 322.59073333 26.52396393 320.00730265 26.625 316.625 C27.06837595 309.93741282 30.05531983 304.90895799 34.375 299.875 C37.85973843 297.45313323 40.09482988 296.21651229 44.375 296.875 C46.6875 297.875 46.6875 297.875 48.375 299.875 C48.75538483 305.72658667 47.91536043 310.58542346 46.3125 316.1875 C44.63091424 321.48768862 44.63091424 321.48768862 45.375 326.875 C49.86207284 323.011441 54.24257027 319.12221944 58.375 314.875 C59.07625 314.2975 59.7775 313.72 60.5 313.125 C62.86811678 310.28325986 63.6061607 307.53289878 64.56640625 303.99609375 C65.46915997 301.62800067 66.40185426 300.44648757 68.375 298.875 C69.035 298.875 69.695 298.875 70.375 298.875 C70.375 298.215 70.375 297.555 70.375 296.875 C70.99375 296.441875 71.6125 296.00875 72.25 295.5625 C74.78954751 293.5458005 75.295854 291.88119244 76.375 288.875 C77.035 288.215 77.695 287.555 78.375 286.875 C79.67074314 282.48387048 80.79429843 278.48728272 80.375 273.875 C80.045 273.545 79.715 273.215 79.375 272.875 C79.30180379 270.17845146 79.28257463 267.50808542 79.3125 264.8125 C79.31701172 264.05388672 79.32152344 263.29527344 79.32617188 262.51367188 C79.3379932 260.63408129 79.35592922 258.75453101 79.375 256.875 C80.365 256.545 81.355 256.215 82.375 255.875 C82.74625 254.4828125 82.74625 254.4828125 83.125 253.0625 C84.63034006 249.22388286 86.00519893 248.28211206 89.5859375 246.484375 C92.12654273 245.61901601 93.80962849 246.18672959 96.375 246.875 C101.27084272 246.85802045 101.27084272 246.85802045 105.375 244.875 C107.22787502 244.80273498 109.08333878 244.7911878 110.9375 244.8125 C111.94941406 244.82152344 112.96132813 244.83054687 114.00390625 244.83984375 C115.17759766 244.85724609 115.17759766 244.85724609 116.375 244.875 C116.643125 243.823125 116.91125 242.77125 117.1875 241.6875 C118.375 237.875 118.375 237.875 119.78125 235.59375 C121.6778934 232.35829949 122.83761753 229.10472769 124.0625 225.5625 C124.28744141 224.91732422 124.51238281 224.27214844 124.74414062 223.60742188 C125.29273533 222.03167113 125.83456959 220.45356946 126.375 218.875 C127.035 218.875 127.695 218.875 128.375 218.875 C128.47167969 218.20339844 128.56835938 217.53179687 128.66796875 216.83984375 C129.54924856 213.14431128 131.09384087 209.86527672 132.6875 206.4375 C135.62487348 199.97288294 137.750801 193.67127896 139.453125 186.765625 C140.38953502 183.8294241 141.5475322 182.3054394 143.375 179.875 C144.23529202 177.56608723 145.01952508 175.2282078 145.75 172.875 C147.63679669 166.94970771 149.79968619 161.23449292 152.25390625 155.515625 C153.21324886 153.25598874 154.09775541 150.99339326 154.9375 148.6875 C156.54522517 144.32239144 158.45029724 140.10797618 160.375 135.875 C160.76816406 134.99585938 161.16132813 134.11671875 161.56640625 133.2109375 C163.59675322 128.69198344 165.68317203 124.22434431 167.9375 119.8125 C170.02900238 115.68194671 171.7994475 111.48932104 173.4765625 107.17578125 C174.6999988 104.04272047 176.05012832 100.96636725 177.375 97.875 C177.68308594 97.06933594 177.99117188 96.26367188 178.30859375 95.43359375 C181.01938418 88.35600472 183.73588385 82.08517122 190.375 77.875 C193 77.375 193 77.375 195.375 77.875 C197.1875 79.6875 197.1875 79.6875 198.375 81.875 C198.375 82.865 198.375 83.855 198.375 84.875 C199.4475 84.83375 200.52 84.7925 201.625 84.75 C206.59804978 84.91576833 206.59804978 84.91576833 209.375 86.875 C211.0859375 89.74609375 211.0859375 89.74609375 212.75 93.3125 C213.35096614 94.5777264 213.95385996 95.84203882 214.55859375 97.10546875 C214.85878418 97.73759277 215.15897461 98.3697168 215.46826172 99.02099609 C217.26054427 102.68566859 219.29835684 106.21753062 221.30859375 109.765625 C222.375 111.875 222.375 111.875 222.375 113.875 C223.035 113.875 223.695 113.875 224.375 113.875 C223.31944444 127.93055556 223.31944444 127.93055556 219.375 131.875 C219.230625 132.926875 219.08625 133.97875 218.9375 135.0625 C218.44291735 138.41467127 217.61838729 140.75437305 216.1875 143.78125 C215.13694472 146.48845016 214.60624859 149.22415432 214 152.0625 C212.80876544 157.06320343 211.78699406 159.0387181 207.375 161.875 C206.50572984 163.07902015 205.67422331 164.31088614 204.875 165.5625 C203.14197206 168.11557271 202.68058579 168.76129366 199.6875 169.875 C197.375 169.875 197.375 169.875 195.375 168.875 C195.49055504 167.16600181 195.61793003 165.45780131 195.75 163.75 C195.81960938 162.79867187 195.88921875 161.84734375 195.9609375 160.8671875 C196.40467027 157.66059032 197.35135178 154.94594467 198.375 151.875 C199.16354715 148.43217881 199.83212687 144.96799306 200.5 141.5 C200.77263672 140.10974609 200.77263672 140.10974609 201.05078125 138.69140625 C201.49570896 136.4199332 201.93701206 134.14781954 202.375 131.875 C201.42109375 131.73707031 200.4671875 131.59914062 199.484375 131.45703125 C196.19270775 130.84087746 195.31575417 130.49501813 193.375 127.875 C192.9109375 126.823125 192.9109375 126.823125 192.4375 125.75 C191.54195736 123.66507748 191.54195736 123.66507748 189.30859375 123.2578125 C188.67050781 123.13148438 188.03242188 123.00515625 187.375 122.875 C183.71189779 129.36822502 180.23860331 135.58947769 178.1171875 142.765625 C177.27642163 145.15517009 176.14973766 147.18758035 174.875 149.375 C172.78444259 152.97747839 171.41435791 156.43689833 170.19140625 160.40625 C168.32061126 166.06339082 166.01276084 171.70982391 163.2734375 177.00390625 C162.18265606 179.09558694 162.18265606 179.09558694 161.5625 182.5 C160.55917661 186.74844748 158.74905751 190.30859179 156.73828125 194.1640625 C153.7355585 200.13509284 151.2810176 206.37132485 149.0078125 212.65234375 C146.94657667 218.18396071 144.29275129 223.42786742 141.69140625 228.72070312 C139.42232639 233.41548284 137.52302517 238.06675258 135.97070312 243.04711914 C135.375 244.875 135.375 244.875 134.375 246.875 C140.96925319 248.39817961 146.48002338 247.12260884 153 245.625 C154.02351563 245.40714844 155.04703125 245.18929687 156.1015625 244.96484375 C161.16744286 243.83689383 164.92521549 242.58016959 169.375 239.875 C172.26953125 239.58203125 172.26953125 239.58203125 175.1875 239.6875 C176.65123047 239.72810547 176.65123047 239.72810547 178.14453125 239.76953125 C178.88058594 239.80433594 179.61664063 239.83914063 180.375 239.875 C180.375 239.215 180.375 238.555 180.375 237.875 C181.72515402 236.97489732 183.08081504 236.08238276 184.45703125 235.22265625 C187.64543536 232.98233157 190.39939811 230.25543757 193.2265625 227.58203125 C197.29192251 224.35191793 201.30447343 224.68720272 206.375 224.875 C207.035 225.205 207.695 225.535 208.375 225.875 C208.81879918 234.89891671 206.81458623 242.56017416 203.375 250.875 C202.715 250.875 202.055 250.875 201.375 250.875 C201.065625 252.050625 201.065625 252.050625 200.75 253.25 C196.00359731 265.76324344 188.31023342 273.06215629 176.36328125 278.78515625 C172.10422095 280.33846059 168.858709 280.3233709 164.375 279.875 C164.045 280.865 163.715 281.855 163.375 282.875 C162.715 282.875 162.055 282.875 161.375 282.875 C161.00375 283.7103125 161.00375 283.7103125 160.625 284.5625 C159.375 286.875 159.375 286.875 157.46484375 289.16015625 C152.13499469 296.08397887 149.8059068 304.25686399 149.375 312.875 C152.73421679 312.44155267 155.46492414 311.42762994 158.5 310 C161.90094617 308.42642789 165.17602174 307.33761838 168.8125 306.4375 C173.51850148 305.23470912 177.53765455 303.48139541 181.79296875 301.15625 C184.56035425 299.78302391 187.35555011 298.72554692 190.25366211 297.66503906 C193.72871836 296.37084157 197.14067444 294.92774916 200.5625 293.5 C205.72886485 291.35881125 210.90369596 289.25477774 216.125 287.25 C217.17042969 286.8478125 218.21585937 286.445625 219.29296875 286.03125 C221.30672993 285.27577052 223.33013318 284.54538541 225.36328125 283.84375 C233.49641621 280.95013146 240.81219208 277.05504803 248.30883789 272.79638672 C251.91564006 270.75056709 255.45421323 268.7696451 259.29296875 267.19140625 C262.93762392 265.63469042 265.34329403 263.41173356 268.375 260.875 C272.85527646 258.24272489 277.43345762 256.46836665 282.375 254.875 C283.42091859 259.8503766 283.7030896 263.93490914 282.375 268.875 C276.32232549 275.98976305 266.94123631 279.79329872 258.375 282.875 C256.87297763 283.62239476 255.3881961 284.40729544 253.9375 285.25 C253.18726563 285.68054688 252.43703125 286.11109375 251.6640625 286.5546875 C250.90867187 286.99039062 250.15328125 287.42609375 249.375 287.875 C247.85515591 288.71013617 246.33432851 289.54348545 244.8125 290.375 C241.85072038 292.01354126 238.976047 293.73847181 236.125 295.5625 C233.97113822 296.93739596 232.15134276 297.96020276 229.75 298.875 C227.41328713 299.8588791 226.17905445 300.83359977 224.3125 302.5 C221.375 304.875 221.375 304.875 217.375 304.875 C217.705 303.225 218.035 301.575 218.375 299.875 C214.91 301.855 214.91 301.855 211.375 303.875 C211.375 304.535 211.375 305.195 211.375 305.875 C210.76914062 305.90078125 210.16328125 305.9265625 209.5390625 305.953125 C203.67353328 306.35017621 199.02694719 307.61169176 193.6484375 309.953125 C190.92668671 311.05679027 188.2905109 311.56810412 185.375 311.875 C186.77259905 315.42018884 186.77259905 315.42018884 188.375 318.875 C188.045 319.865 187.715 320.855 187.375 321.875 C186.715 321.875 186.055 321.875 185.375 321.875 C185.375 322.596875 185.375 323.31875 185.375 324.0625 C183.81286998 328.45599067 180.35139059 329.75425835 176.375 331.875 C174.9209375 332.679375 174.9209375 332.679375 173.4375 333.5 C165.02602579 337.27658026 157.70556889 338.83678555 148.375 337.875 C147.71371094 337.54371094 147.05242187 337.21242188 146.37109375 336.87109375 C139.9490209 333.66634115 130.20589675 335.82148684 123.3984375 337.14453125 C121.07378841 337.98373855 120.08158424 339.13101118 118.375 340.875 C116.04645135 341.24026253 113.71201038 341.56850684 111.375 341.875 C109.4859549 342.5589646 107.59806252 343.247746 105.73046875 343.98828125 C98.01369026 346.89327083 89.99650917 349.05044988 82.0078125 351.06640625 C79.33338837 351.88777983 76.830948 352.95433338 74.27197266 354.07885742 C70.91236963 355.48885298 67.45895946 356.61094918 64 357.75 C63.22487061 358.0075708 62.44974121 358.2651416 61.65112305 358.53051758 C55.51694821 360.54834642 49.34205645 362.40480157 43.12158203 364.13818359 C39.97298579 365.03167262 36.99836119 366.03660281 33.98828125 367.328125 C29.65475716 369.1833418 25.25391419 370.56169496 20.75 371.9375 C14.63057618 373.78159954 14.63057618 373.78159954 8.64453125 376.00390625 C5.13618587 377.35048288 1.51243801 377.64506878 -2.19921875 378.1171875 C-4.78745331 378.64113949 -4.78745331 378.64113949 -5.95703125 380.9453125 C-6.17746094 381.58210938 -6.39789063 382.21890625 -6.625 382.875 C-8.605 382.875 -10.585 382.875 -12.625 382.875 C-12.625 383.535 -12.625 384.195 -12.625 384.875 C-14.18280332 385.55256882 -15.74650096 386.21659457 -17.3125 386.875 C-18.18261719 387.24625 -19.05273438 387.6175 -19.94921875 388 C-22.6822002 388.89370488 -24.77200934 389.03949676 -27.625 388.875 C-27.955 389.535 -28.285 390.195 -28.625 390.875 C-29.470625 390.99875 -30.31625 391.1225 -31.1875 391.25 C-34.89719481 391.92448997 -37.44591489 393.20166081 -40.6953125 395.03515625 C-42.625 395.875 -42.625 395.875 -46.625 395.875 C-46.625 396.535 -46.625 397.195 -46.625 397.875 C-48.64429855 398.67057327 -50.66551945 399.46126802 -52.6875 400.25 C-53.81285156 400.69085938 -54.93820313 401.13171875 -56.09765625 401.5859375 C-59.625 402.875 -59.625 402.875 -62.89379883 403.80395508 C-68.70422416 405.47184332 -74.39723514 407.4820062 -80.11083984 409.45092773 C-82.22258577 410.17806052 -84.33581737 410.90074202 -86.44921875 411.62304688 C-102.7221893 416.84298141 -102.7221893 416.84298141 -117.7265625 424.75 C-120.50896173 426.39882917 -123.44189087 427.25103006 -126.51953125 428.19921875 C-130.43477826 429.45587502 -133.68826246 430.90804512 -136.5625 433.875 C-138.625 435.875 -138.625 435.875 -142.125 437.3125 C-145.72663527 438.5504408 -145.72663527 438.5504408 -147.3125 441.375 C-150.60034831 444.92943061 -154.10295162 445.25238264 -158.75 446.19921875 C-161.55808451 446.73510052 -161.55808451 446.73510052 -163.6484375 447.92578125 C-166.97897533 449.52522926 -170.52175731 449.33595213 -174.1640625 449.53125 C-176.79903194 449.64737389 -176.79903194 449.64737389 -178.625 451.875 C-180.84139818 452.61522565 -183.07610829 453.20748161 -185.3359375 453.80078125 C-188.33434225 455.20788246 -189.63842027 457.2722828 -191.625 459.875 C-186.84184583 459.46644292 -182.05872568 459.05749031 -177.27563477 458.64819336 C-175.65324791 458.50941649 -174.03085229 458.37074203 -172.40844727 458.23217773 C-170.05743046 458.03136625 -167.70644174 457.83023007 -165.35546875 457.62890625 C-164.20728416 457.53067062 -164.20728416 457.53067062 -163.03590393 457.43045044 C-158.85836134 457.07163616 -154.68259516 456.69847642 -150.5078125 456.30859375 C-144.78611226 455.78236598 -139.06134915 455.47092121 -133.32421875 455.15625 C-129.75194774 454.94881686 -129.75194774 454.94881686 -126.7746582 454.35766602 C-123.61432276 453.87336378 -120.72488631 453.80977239 -117.53125 453.87109375 C-108.94321635 453.93311343 -100.3959299 453.51472951 -91.82080078 453.07543945 C-89.12940887 452.93772559 -86.43779458 452.80535163 -83.74609375 452.67382812 C-75.14837995 452.24781506 -66.56176966 451.76096943 -57.97705078 451.1184082 C-54.34412778 450.85460454 -50.71012644 450.62888351 -47.07421875 450.41015625 C-30.84570275 449.50587102 -30.84570275 449.50587102 -14.6875 447.8125 C-0.60698261 445.98777989 13.68824652 445.78513014 27.87109375 445.90234375 C31.96641587 445.87038471 36.03634628 445.65899428 40.125 445.4375 C64.80705232 444.16452709 89.55401501 443.42591358 114.25341797 444.46826172 C124.94892785 444.91432362 135.6151705 444.93905239 146.31713867 444.83764648 C152.12854242 444.79796637 157.63111573 444.89012873 163.375 445.875 C166.02475113 446.10068858 168.65853851 446.29321154 171.3125 446.4375 C172.09882813 446.48068359 172.88515625 446.52386719 173.6953125 446.56835938 C183.45402008 447.02785009 193.22539607 446.92827762 202.99194336 446.83813477 C209.72915906 446.79470622 216.31325696 446.95123567 223.01367188 447.65673828 C226.31222237 447.96162912 229.56529337 447.8924614 232.875 447.8125 C242.51864477 447.69077558 252.12644114 448.26435198 261.75 448.8125 C262.53914795 448.85615692 263.3282959 448.89981384 264.14135742 448.9447937 C266.41485671 449.07171952 268.68791929 449.20460045 270.9609375 449.33984375 C271.64880341 449.37843506 272.33666931 449.41702637 273.04537964 449.45678711 C276.25871055 449.65650981 279.28660297 449.93729318 282.375 450.875 C282.375 453.185 282.375 455.495 282.375 457.875 C281.385 457.875 280.395 457.875 279.375 457.875 C279.045 458.535 278.715 459.195 278.375 459.875 C278.375 459.215 278.375 458.555 278.375 457.875 C277.385 458.205 276.395 458.535 275.375 458.875 C275.375 458.215 275.375 457.555 275.375 456.875 C274.859375 457.225625 274.34375 457.57625 273.8125 457.9375 C270.42466491 459.2405135 267.8981219 458.51556762 264.375 457.875 C260.96400832 457.875 257.74411686 458.36645406 254.375 458.875 C254.375 458.215 254.375 457.555 254.375 456.875 C253.653125 457.060625 252.93125 457.24625 252.1875 457.4375 C249.375 457.875 249.375 457.875 247.125 457.375 C243.12318218 456.64739676 239.37548138 457.30848303 235.375 457.875 C235.375 457.215 235.375 456.555 235.375 455.875 C234.385 456.205 233.395 456.535 232.375 456.875 C230.96499377 456.96585896 229.55111341 457.00289139 228.13818359 457.00439453 C227.28654633 457.00754669 226.43490906 457.01069885 225.5574646 457.01394653 C224.63873566 457.0119223 223.72000671 457.00989807 222.7734375 457.0078125 C221.34688339 457.00924759 221.34688339 457.00924759 219.89151001 457.01071167 C217.8757521 457.01139258 215.85999199 457.0095445 213.84423828 457.00537109 C210.78282631 457.00005698 207.72156343 457.00530071 204.66015625 457.01171875 C202.69791635 457.01105726 200.73567653 457.00977464 198.7734375 457.0078125 C197.86685394 457.00983673 196.96027039 457.01186096 196.0262146 457.01394653 C191.09348424 456.99608569 186.29219931 456.73930946 181.39932251 456.10128784 C177.30965198 455.64412614 173.13817949 455.43420513 169.125 456.4375 C167.375 456.875 167.375 456.875 165.64648438 456.40625 C162.80031321 455.74059346 160.20433326 455.78097484 157.28125 455.8125 C156.085 455.82023437 154.88875 455.82796875 153.65625 455.8359375 C151.16666331 455.86165637 148.67707985 455.88768983 146.1875 455.9140625 C139.50093571 455.95692509 132.96141222 455.73284263 126.30566406 455.10644531 C121.20617963 454.70372028 116.11260139 454.72811453 111 454.75 C109.87513184 454.75193359 108.75026367 454.75386719 107.59130859 454.75585938 C99.59332118 454.79641826 91.61876058 455.03274636 83.63525391 455.51904297 C77.75476447 455.8540151 71.90297202 455.87898019 66.015625 455.84765625 C56.35858658 455.80779846 46.74807245 456.16195328 37.10595703 456.67456055 C34.45244277 456.81501732 31.79857117 456.94606238 29.14453125 457.07617188 C27.43226392 457.16352022 25.72002311 457.25139049 24.0078125 457.33984375 C22.83594894 457.39772316 22.83594894 457.39772316 21.64041138 457.45677185 C17.47978104 457.68275504 13.48673233 458.16770829 9.375 458.875 C7.98012914 458.92762182 6.58285614 458.93996034 5.1875 458.90234375 C4.41970215 458.88856689 3.6519043 458.87479004 2.86083984 458.8605957 C2.0405127 458.84472412 1.22018555 458.82885254 0.375 458.8125 C-7.44214045 458.74639761 -15.07712798 459.16389849 -22.85009766 459.95068359 C-33.21880968 460.98169877 -43.60686416 461.70421143 -54 462.4375 C-55.348591 462.53340927 -55.348591 462.53340927 -56.72442627 462.6312561 C-71.89134165 463.70951791 -87.05492493 464.78254692 -102.25 465.375 C-108.28015137 465.6217481 -114.2960343 465.88820632 -120.3125 466.375 C-126.1097979 466.8334238 -131.89964095 467.0232903 -137.7121582 467.19897461 C-148.74404155 467.53515822 -159.55287037 468.11189593 -170.48681641 469.60449219 C-175.59490541 470.25073135 -180.72798304 470.69340121 -185.85351562 471.17749023 C-190.14692341 471.59229332 -194.37761977 472.0996301 -198.625 472.875 C-198.955 473.865 -199.285 474.855 -199.625 475.875 C-200.615 475.875 -201.605 475.875 -202.625 475.875 C-202.625 460.035 -202.625 444.195 -202.625 427.875 C-197.01141697 425.06820848 -195.4463454 424.64671195 -189.625 424.875 C-189.295 424.545 -188.965 424.215 -188.625 423.875 C-186.29202567 423.83407063 -183.95794775 423.83258277 -181.625 423.875 C-181.625 424.535 -181.625 425.195 -181.625 425.875 C-180.965 425.875 -180.305 425.875 -179.625 425.875 C-180.95038124 429.85114372 -182.63730914 431.98689884 -185.625 434.875 C-185.625 435.535 -185.625 436.195 -185.625 436.875 C-184.04032272 436.59072583 -182.4572943 436.29725182 -180.875 436 C-179.99328125 435.83757812 -179.1115625 435.67515625 -178.203125 435.5078125 C-175.64696546 434.98415716 -175.64696546 434.98415716 -173.57421875 433.83203125 C-171.34323079 432.7366564 -169.65726216 432.57875156 -167.1875 432.4375 C-163.24467084 432.07027572 -160.90661488 431.18099965 -157.625 428.875 C-155.6286764 427.86768075 -153.62771736 426.86954672 -151.625 425.875 C-150.1240824 425.08754974 -148.62555715 424.29552979 -147.12890625 423.5 C-146.32259766 423.07203125 -145.51628906 422.6440625 -144.68554688 422.203125 C-143.02322691 421.31932705 -141.36176383 420.43391548 -139.70117188 419.546875 C-135.07729059 417.09655004 -130.4593276 414.87662232 -125.625 412.875 C-123.89325262 412.0889946 -122.16392223 411.29763384 -120.4375 410.5 C-111.50736327 406.44971941 -102.95116227 402.7721806 -93.37109375 400.5546875 C-90.31105911 399.79729628 -87.4608692 398.78056521 -84.53515625 397.62109375 C-82.50004545 396.82619362 -80.44914411 396.1239341 -78.375 395.4375 C-77.62347656 395.18742187 -76.87195313 394.93734375 -76.09765625 394.6796875 C-74.33941495 394.10749523 -72.57572711 393.55192291 -70.80859375 393.0078125 C-58.26284844 389.16693989 -58.26284844 389.16693989 -47.625 381.875 C-43.52516552 380.22068082 -39.39283801 378.79501262 -35.1875 377.4375 C-32.0979788 376.42878453 -29.191971 375.25421278 -26.25 373.875 C-21.9901657 371.91293972 -17.68342889 370.7575407 -13.1484375 369.6015625 C-10.09494704 368.72238413 -7.4166072 367.37817311 -4.625 365.875 C-3.965 365.875 -3.305 365.875 -2.625 365.875 C-2.33625 365.235625 -2.0475 364.59625 -1.75 363.9375 C-0.625 361.875 -0.625 361.875 1.375 360.875 C0.694375 359.8540625 0.694375 359.8540625 0 358.8125 C-3.45130204 352.57360784 -3.90894553 346.83166559 -3.625 339.875 C-4.43324219 340.21273438 -5.24148437 340.55046875 -6.07421875 340.8984375 C-7.14285156 341.34445312 -8.21148437 341.79046875 -9.3125 342.25 C-10.36824219 342.69085938 -11.42398438 343.13171875 -12.51171875 343.5859375 C-14.47988214 344.40086086 -16.4607673 345.18625127 -18.45703125 345.9296875 C-21.24300544 347.14447264 -21.40904592 348.13910331 -22.625 350.875 C-26.61841021 356.53233114 -26.61841021 356.53233114 -30.5625 357.875 C-33.97459596 357.875 -36.4310564 357.01220384 -39.625 355.875 C-39.5528125 354.96878906 -39.480625 354.06257813 -39.40625 353.12890625 C-38.77014361 344.91756598 -38.77014361 344.91756598 -38.625 336.6875 C-38.625 332.875 -38.625 332.875 -37.625 329.875 C-37.625 329.00875 -37.625 328.1425 -37.625 327.25 C-37.625 324.875 -37.625 324.875 -36.625 323.875 C-36.41516721 321.73295689 -36.25676615 319.58575887 -36.125 317.4375 C-35.73513767 311.09527534 -35.73513767 311.09527534 -34.625 308.875 C-34.4165978 306.26707808 -34.25059715 303.67445562 -34.125 301.0625 C-33.90583324 296.57769879 -33.51014556 292.28014302 -32.625 287.875 C-32.36851387 285.10789541 -32.21375195 282.33710541 -32.0625 279.5625 C-32.01931641 278.82193359 -31.97613281 278.08136719 -31.93164062 277.31835938 C-31.82629568 275.50408536 -31.72521684 273.6895645 -31.625 271.875 C-32.945 271.545 -34.265 271.215 -35.625 270.875 C-35.73094482 271.47578369 -35.83688965 272.07656738 -35.94604492 272.69555664 C-37.14042649 279.09133708 -38.84268399 285.15727763 -40.9375 291.3125 C-41.40542969 292.70033691 -41.40542969 292.70033691 -41.8828125 294.11621094 C-43.75071735 299.56811017 -45.77763953 304.84466084 -48.29296875 310.03515625 C-50.14698611 313.98785602 -51.78605201 318.02175829 -53.4375 322.0625 C-53.75203125 322.83110352 -54.0665625 323.59970703 -54.390625 324.39160156 C-55.1370677 326.21872741 -55.88127531 328.04676611 -56.625 329.875 C-57.285 329.875 -57.945 329.875 -58.625 329.875 C-58.78742188 331.17630859 -58.78742188 331.17630859 -58.953125 332.50390625 C-60.45907717 340.05993368 -64.72013733 346.90407809 -69.34765625 352.98046875 C-71.63591638 356.37437139 -73.2820485 360.11282806 -75.07421875 363.78515625 C-77.32527054 368.27024935 -79.64867493 372.82289479 -82.625 376.875 C-83.285 376.875 -83.945 376.875 -84.625 376.875 C-84.955 377.865 -85.285 378.855 -85.625 379.875 C-91.43428764 384.1981908 -97.24470482 387.74775353 -104.625 387.875 C-107.46273772 386.80773133 -110.03422252 385.44292507 -112.625 383.875 C-112.38007812 383.02035156 -112.13515625 382.16570312 -111.8828125 381.28515625 C-111.55490631 376.94785161 -113.10091682 374.71855622 -115.5 371.3125 C-119.2019808 365.91114577 -121.15040879 361.53017804 -120.625 354.875 C-119.965 353.885 -119.305 352.895 -118.625 351.875 C-118.26161151 349.55839835 -118.12237882 347.27259253 -117.96875 344.93359375 C-117.625 342.875 -117.625 342.875 -115.625 340.875 C-115.23666767 338.90781534 -115.23666767 338.90781534 -115.125 336.6875 C-114.66974105 331.71159959 -113.60540115 327.17293629 -111.63671875 322.55859375 C-110.52446808 319.60833811 -109.91498298 316.79240212 -109.375 313.6875 C-109.18421875 312.64207031 -108.9934375 311.59664063 -108.796875 310.51953125 C-108.71179688 309.21048828 -108.71179688 309.21048828 -108.625 307.875 C-109.285 307.215 -109.945 306.555 -110.625 305.875 C-110.41557124 302.66375903 -110.14875584 300.54347784 -108.140625 297.98046875 C-106.42499164 295.59715333 -106.02945572 293.94130469 -105.5625 291.0625 C-104.8270895 286.8992257 -103.78719822 282.94269378 -102.625 278.875 C-102.30400379 277.18909552 -101.99206479 275.5014502 -101.6875 273.8125 C-101.11896904 270.84547905 -100.57437864 268.77595821 -99.1875 266.0625 C-97.14973069 261.9054506 -96.3830129 257.71374239 -95.46875 253.19140625 C-94.71907366 250.24476174 -93.73834381 247.61806022 -92.49462891 244.84985352 C-91.48270726 242.55186526 -90.566011 240.22548675 -89.65234375 237.88671875 C-89.31009766 237.01595703 -88.96785156 236.14519531 -88.61523438 235.24804688 C-87.90625355 233.43942232 -87.20058718 231.6294954 -86.49804688 229.81835938 C-86.15708984 228.95404297 -85.81613281 228.08972656 -85.46484375 227.19921875 C-85.00646118 226.0249231 -85.00646118 226.0249231 -84.53881836 224.8269043 C-83.625 222.875 -83.625 222.875 -81.625 220.875 C-80.92279739 218.96902148 -80.22207521 217.06247546 -79.53125 215.15234375 C-77.03397726 208.87686959 -73.42807274 203.48401719 -69.30078125 198.18359375 C-66.4559877 194.26454249 -64.03338291 190.08182676 -61.5546875 185.92578125 C-59.74123163 183.05875891 -57.7787031 180.49085188 -55.625 177.875 C-54.2709068 175.88899663 -52.94042376 173.88682457 -51.625 171.875 C-46.08011124 163.45832846 -40.36703179 155.15785664 -34.625 146.875 C-33.91029541 145.83931885 -33.91029541 145.83931885 -33.18115234 144.78271484 C-31.81554046 142.80828528 -30.44061279 140.84071771 -29.0625 138.875 C-28.64516602 138.26954346 -28.22783203 137.66408691 -27.79785156 137.0402832 C-26.79060923 135.61488902 -25.71401851 134.23893708 -24.625 132.875 C-23.965 132.875 -23.305 132.875 -22.625 132.875 C-20.04636496 125.39858016 -17.50336637 117.12977673 -19.1953125 109.203125 C-19.80200002 105.91598169 -18.3780681 104.63945355 -16.625 101.875 C-15.76705487 98.44321949 -15.63120253 95.48424042 -15.6875 91.9375 C-15.79174559 85.19628493 -14.60665473 78.52746377 -13.625 71.875 C-14.615 71.875 -15.605 71.875 -16.625 71.875 C-16.91375 72.49375 -17.2025 73.1125 -17.5 73.75 C-18.625 75.875 -18.625 75.875 -20.625 77.875 C-21.945 77.875 -23.265 77.875 -24.625 77.875 C-25.75 71.25 -25.75 71.25 -24.625 67.875 C-24.59533939 65.09961439 -24.69081144 62.34014355 -24.78515625 59.56640625 C-24.625 56.875 -24.625 56.875 -23.6184082 54.97558594 C-22.49160036 52.59292319 -22.441829 51.1862365 -22.5703125 48.57421875 C-22.59480469 47.76146484 -22.61929688 46.94871094 -22.64453125 46.11132812 C-22.71437386 44.42346505 -22.79238879 42.73591867 -22.87890625 41.04882812 C-23.03961389 35.06010502 -22.07887756 31.80091762 -18.625 26.875 C-17.965 26.215 -17.305 25.555 -16.625 24.875 C-15.90787442 22.89253301 -15.25183572 20.88783915 -14.625 18.875 C-13.69869173 16.13403864 -12.72864704 13.41014625 -11.75 10.6875 C-11.50636719 9.97658203 -11.26273438 9.26566406 -11.01171875 8.53320312 C-8.82741143 2.51786976 -6.72847663 -0.87762739 0 0 Z M44.375 65.875 C42.71200035 68.28555254 42.71200035 68.28555254 41.375 70.875 C37.855 75.715 37.855 75.715 34.375 76.875 C33.68459426 78.53197379 33.0219365 80.2005761 32.375 81.875 C30.40777625 84.58841207 28.36976816 86.87996354 25.9375 89.1875 C23.27167098 91.98336947 21.43359535 94.79146459 19.48828125 98.10546875 C18.375 99.875 18.375 99.875 16.375 101.875 C15.99436779 104.2010857 15.66230055 106.53555264 15.375 108.875 C15.045 109.865 14.715 110.855 14.375 111.875 C13.04562432 112.22378244 11.71150528 112.55462127 10.375 112.875 C1.05897927 119.80182257 -2.35980546 130.18382015 -5.625 140.875 C-5.88152344 141.66519531 -6.13804687 142.45539063 -6.40234375 143.26953125 C-8.03197024 148.41785373 -9.13031829 153.48772252 -10.0234375 158.80859375 C-10.98504307 163.71028448 -12.36817056 168.49228425 -13.72265625 173.296875 C-14.6105707 176.81778253 -15.13291085 180.28099176 -15.625 183.875 C-16.2840841 185.54467972 -16.95150839 187.21107955 -17.625 188.875 C-18.09817368 190.96078352 -18.56809925 193.04736238 -19.02075195 195.13769531 C-19.69167461 198.17704271 -20.40932407 201.20321122 -21.1328125 204.23046875 C-21.52919922 205.90592773 -21.52919922 205.90592773 -21.93359375 207.61523438 C-22.48090858 209.92626472 -23.033047 212.23615767 -23.58984375 214.54492188 C-23.85152344 215.65802734 -24.11320313 216.77113281 -24.3828125 217.91796875 C-24.6214502 218.91852295 -24.86008789 219.91907715 -25.10595703 220.94995117 C-25.64444635 223.98458921 -25.7158666 226.79953698 -25.625 229.875 C-21.46692872 230.32524103 -21.46692872 230.32524103 -18.75 227.2421875 C-17.69711196 226.08826475 -16.65580636 224.92369041 -15.625 223.75 C-14.84382812 222.89535156 -14.84382812 222.89535156 -14.046875 222.0234375 C-10.86834361 218.49173596 -8.2031847 214.86104736 -5.625 210.875 C-4.31445377 209.51926252 -2.97751497 208.18887169 -1.625 206.875 C2.16554673 202.76277843 5.64761329 198.78429608 8.375 193.875 C8.931875 193.153125 9.48875 192.43125 10.0625 191.6875 C11.57050327 189.97798833 11.57050327 189.97798833 11.375 187.875 C12.035 187.875 12.695 187.875 13.375 187.875 C13.808125 186.988125 14.24125 186.10125 14.6875 185.1875 C16.375 181.875 16.375 181.875 18.0625 179.125 C19.54295701 177.02121257 19.54295701 177.02121257 19.375 174.875 C19.99375 174.689375 20.6125 174.50375 21.25 174.3125 C24.4625254 172.13932105 24.59953104 169.55847754 25.375 165.875 C25.375 164.885 25.375 163.895 25.375 162.875 C26.70687852 161.54021344 28.04048829 160.20715391 29.375 158.875 C31.1543019 155.91331465 31.1543019 155.91331465 32.75 152.5625 C33.19508911 151.65902832 33.19508911 151.65902832 33.64916992 150.73730469 C36.18412904 145.49330621 38.37072806 140.12456455 40.42138672 134.67456055 C41.48111784 131.89435558 42.24397018 130.00602982 44.375 127.875 C45.11097929 125.96814456 45.83932692 124.05773597 46.515625 122.12890625 C47.36608259 119.89838793 48.40651114 117.86962514 49.5 115.75 C52.25533464 109.76608623 52.1903608 103.36506804 52.375 96.875 C53.035 96.875 53.695 96.875 54.375 96.875 C55.08078905 93.54878141 55.73778648 90.21502522 56.375 86.875 C56.57738281 85.81667969 56.77976562 84.75835937 56.98828125 83.66796875 C58.96000076 72.59371479 58.96000076 72.59371479 56.375 61.875 C51.07622324 61.37035459 48.46783425 62.50978073 44.375 65.875 Z M-33.625 171.875 C-35.08118123 174.39904747 -35.64260999 176.0510999 -35.9375 179 C-36.164375 179.94875 -36.39125 180.8975 -36.625 181.875 C-38.29166667 182.54166667 -39.95833333 183.20833333 -41.625 183.875 C-42.45388749 186.84814468 -42.45388749 186.84814468 -42.625 189.875 C-44.01875072 192.66250144 -45.78744861 192.76766287 -48.625 193.875 C-49.285 194.535 -49.945 195.195 -50.625 195.875 C-50.2846875 197.5146875 -50.2846875 197.5146875 -49.9375 199.1875 C-49.625 202.875 -49.625 202.875 -51.75 205.6875 C-54.41526212 207.71541683 -56.54240422 208.68938624 -59.625 209.875 C-62.786937 212.22386749 -63.79978375 214.06247845 -64.5625 217.8125 C-65.45821456 222.1166859 -67.43459286 223.83651701 -70.625 226.875 C-74.30718984 232.16662381 -75.10113551 237.08559261 -75.25390625 243.45703125 C-75.70415554 246.39076083 -76.52385693 246.87415016 -78.625 248.875 C-82.05349165 256.02925136 -84.22241788 262.95755169 -84.625 270.875 C-85.285 270.875 -85.945 270.875 -86.625 270.875 C-86.80675781 271.78121094 -86.98851563 272.68742187 -87.17578125 273.62109375 C-87.42714844 274.83925781 -87.67851563 276.05742187 -87.9375 277.3125 C-88.18113281 278.50746094 -88.42476562 279.70242188 -88.67578125 280.93359375 C-89.30144706 283.76304925 -90.14855783 286.42264265 -91.12890625 289.1484375 C-92.91899566 294.36614446 -93.5958734 299.60277283 -94.25 305.0625 C-94.49151009 306.97274202 -94.73367896 308.88290088 -94.9765625 310.79296875 C-95.08661621 311.68580566 -95.19666992 312.57864258 -95.31005859 313.49853516 C-95.5529515 315.33134104 -95.86392899 317.15520737 -96.203125 318.97265625 C-96.79298877 323.03070049 -96.76981309 327.03029559 -96.75 331.125 C-96.75386719 331.9396875 -96.75773437 332.754375 -96.76171875 333.59375 C-96.87403864 337.86918443 -96.87403864 337.86918443 -95.625 341.875 C-95.18137632 348.67379082 -95.73918313 354.3375015 -97.625 360.875 C-97.51280798 363.62126552 -97.10171681 366.15771419 -96.625 368.875 C-93.29736387 367.50479689 -91.98668445 366.32431391 -90.375 363.125 C-88.53644257 359.59588047 -86.62916009 356.12995253 -84.62182617 352.69335938 C-79.4095398 344.11262084 -79.4095398 344.11262084 -75.625 334.875 C-76.12 333.885 -76.12 333.885 -76.625 332.875 C-75.965 332.875 -75.305 332.875 -74.625 332.875 C-74.32207031 332.13636719 -74.01914063 331.39773438 -73.70703125 330.63671875 C-70.82041891 323.64667595 -67.77302336 316.75037046 -64.625 309.875 C-62.61116927 305.38260837 -60.89830682 300.89356873 -59.38671875 296.21484375 C-58.8666764 294.61738032 -58.32666595 293.02631456 -57.76953125 291.44140625 C-57.49496094 290.65636719 -57.22039062 289.87132812 -56.9375 289.0625 C-56.68613281 288.35480469 -56.43476563 287.64710938 -56.17578125 286.91796875 C-55.45146367 284.58396752 -55.45146367 284.58396752 -55.625 280.875 C-54.965 280.875 -54.305 280.875 -53.625 280.875 C-53.44324219 279.46347656 -53.44324219 279.46347656 -53.2578125 278.0234375 C-53.00644531 276.15558594 -53.00644531 276.15558594 -52.75 274.25 C-52.58757812 273.02023437 -52.42515625 271.79046875 -52.2578125 270.5234375 C-51.66851101 267.12585979 -50.75993422 264.12154491 -49.625 260.875 C-49.32384619 259.46446765 -49.05217867 258.04726906 -48.8125 256.625 C-47.73148514 250.95605595 -46.1579198 245.45664567 -44.5871582 239.90893555 C-43.13771086 234.77124311 -41.77576182 229.62098386 -40.5 224.4375 C-39.41917857 220.04979092 -38.32060004 215.670655 -37.125 211.3125 C-36.77501953 210.03439453 -36.77501953 210.03439453 -36.41796875 208.73046875 C-35.80472256 206.52217827 -35.18010109 204.31704491 -34.55078125 202.11328125 C-34.17944964 200.78392058 -33.80835451 199.45449384 -33.4375 198.125 C-32.92123047 196.30742187 -32.92123047 196.30742187 -32.39453125 194.453125 C-31.61230554 190.81597399 -31.56559121 187.58119448 -31.625 183.875 C-31.13 182.9159375 -31.13 182.9159375 -30.625 181.9375 C-29.02965079 178.64709224 -29.50422723 175.49818319 -29.625 171.875 C-30.945 171.875 -32.265 171.875 -33.625 171.875 Z M183.375 251.875 C183.375 252.535 183.375 253.195 183.375 253.875 C182.715 253.875 182.055 253.875 181.375 253.875 C180.446875 255.5765625 180.446875 255.5765625 179.5 257.3125 C177.625 260.75 177.625 260.75 175.375 261.875 C175.375 262.865 175.375 263.855 175.375 264.875 C180.19534262 264.46182778 182.28492611 262.49480085 185.375 258.875 C185.375 258.215 185.375 257.555 185.375 256.875 C185.99375 256.58625 186.6125 256.2975 187.25 256 C189.50825765 254.93779958 189.50825765 254.93779958 191.375 252.875 C191.54187448 250.29145782 191.54187448 250.29145782 191.375 247.875 C187.44330895 247.875 186.21072772 249.26919615 183.375 251.875 Z M142.125 260 C140.92359375 260.22945313 139.7221875 260.45890625 138.484375 260.6953125 C134.74927646 262.11239763 134.17906187 263.43391903 132.375 266.875 C130.375 267.20833333 128.375 267.54166667 126.375 267.875 C122.41302021 272.57067975 120.96764418 279.5044233 119.5 285.375 C118.55693249 288.30898782 117.59201643 290.37933322 116.0625 293 C113.94051462 296.64832575 112.39260951 300.28834702 110.9375 304.25 C105.25430484 319.46457262 105.25430484 319.46457262 99.5 324.8125 C98.79875 325.493125 98.0975 326.17375 97.375 326.875 C97.375 328.195 97.375 329.515 97.375 330.875 C89.35060976 334.31402439 89.35060976 334.31402439 85.125 333.375 C82.362629 331.00725343 82.67276807 328.38866322 82.375 324.875 C82.05533861 323.20565717 81.72768934 321.5376783 81.375 319.875 C80.75625 320.184375 80.1375 320.49375 79.5 320.8125 C78.125 321.5 76.75 322.1875 75.375 322.875 C75.375 323.535 75.375 324.195 75.375 324.875 C67.21021713 327.9231856 67.21021713 327.9231856 63.125 327.6875 C60.40306097 327.59959533 60.40306097 327.59959533 58.8984375 329.12890625 C56.20071607 332.10200334 56.20071607 332.10200334 55.375 335.875 C54.818125 335.936875 54.26125 335.99875 53.6875 336.0625 C51.12495088 336.77043117 51.12495088 336.77043117 49 339.3125 C45.99609721 342.24488129 44.46993008 343.04084758 40.375 343.875 C38.64566973 343.73111972 36.91651939 343.58506922 35.1875 343.4375 C28.59670756 343.24738099 25.16711675 346.5057223 20.39453125 350.7109375 C18.14757626 352.62536433 18.14757626 352.62536433 18.375 354.875 C15.52089666 356.38060497 12.69375358 357.50716796 9.625 358.5 C8.42617187 358.89058594 8.42617187 358.89058594 7.203125 359.2890625 C6.59984375 359.48242188 5.9965625 359.67578125 5.375 359.875 C5.375 360.535 5.375 361.195 5.375 361.875 C11.26437479 361.32715118 16.60919408 359.63923784 22.234375 357.84765625 C24.67561444 357.09160075 27.07316387 356.43661852 29.5625 355.875 C33.46008883 354.85268162 36.99648157 353.47111608 40.6875 351.875 C43.51794261 350.82181205 46.37071938 350.09840003 49.3046875 349.39306641 C52.53767275 348.5840576 55.69899238 347.56976688 58.875 346.5625 C60.27336989 346.11957816 61.67180949 345.67687635 63.0703125 345.234375 C64.13427246 344.89696289 64.13427246 344.89696289 65.21972656 344.55273438 C67.34890577 343.88320544 69.4820143 343.22826103 71.6171875 342.578125 C80.063978 340.01124317 80.063978 340.01124317 88.3125 336.875 C93.48400014 334.70261814 98.82666158 333.20998381 104.22436523 331.71289062 C107.63697818 330.75112179 110.89987639 329.70954513 114.1484375 328.28125 C116.63350758 327.19816861 118.68750151 326.44871415 121.3125 325.9375 C125.75380524 324.91391793 131.08236246 323.16763754 134.375 319.875 C134.4132184 317.9492173 134.44760607 316.02327673 134.46191406 314.09716797 C134.62709611 303.64622694 136.89523176 296.76935615 142.375 287.875 C142.80167969 287.16601562 143.22835937 286.45703125 143.66796875 285.7265625 C144.42620146 284.49993348 145.19695944 283.28095231 145.98046875 282.0703125 C147.929178 279.00259654 149.78744884 275.8849576 151.625 272.75 C152.15565063 271.87021484 152.15565063 271.87021484 152.69702148 270.97265625 C154.84414133 267.27967263 155.93614315 264.12158536 156.375 259.875 C151.26189084 258.91793085 147.21690957 258.95296232 142.125 260 Z M94.375 263.875 C94.045 264.865 93.715 265.855 93.375 266.875 C92.385 267.205 91.395 267.535 90.375 267.875 C90.375 272.825 90.375 277.775 90.375 282.875 C91.035 282.875 91.695 282.875 92.375 282.875 C92.375 282.215 92.375 281.555 92.375 280.875 C93.035 280.875 93.695 280.875 94.375 280.875 C96.00177091 278.73729382 97.51479644 276.6074466 99 274.375 C99.42023438 273.75496094 99.84046875 273.13492187 100.2734375 272.49609375 C101.31337167 270.95982736 102.34497056 269.41792476 103.375 267.875 C102.58200294 265.70461523 102.58200294 265.70461523 100.52734375 265.2421875 C99.79644531 265.07976562 99.06554687 264.91734375 98.3125 264.75 C97.57902344 264.58242188 96.84554688 264.41484375 96.08984375 264.2421875 C95.52394531 264.12101562 94.95804687 263.99984375 94.375 263.875 Z M97.375 296.875 C95.74668238 298.68461577 95.74668238 298.68461577 94.375 300.875 C94.705 301.865 95.035 302.855 95.375 303.875 C96.98407108 301.49887135 96.98407108 301.49887135 98.375 298.875 C98.045 298.215 97.715 297.555 97.375 296.875 Z M219.375 298.875 C219.375 299.535 219.375 300.195 219.375 300.875 C220.035 300.875 220.695 300.875 221.375 300.875 C221.375 300.215 221.375 299.555 221.375 298.875 C220.715 298.875 220.055 298.875 219.375 298.875 Z M-188.625 436.875 C-188.955 437.535 -189.285 438.195 -189.625 438.875 C-188.635 438.875 -187.645 438.875 -186.625 438.875 C-186.625 438.215 -186.625 437.555 -186.625 436.875 C-187.285 436.875 -187.945 436.875 -188.625 436.875 Z " fill="#1D1D1D" transform="translate(202.625,26.125)"/>
<path d="M0 0 C-4.18461538 5.78461538 -4.18461538 5.78461538 -8.3125 6.875 C-9.6428125 6.936875 -9.6428125 6.936875 -11 7 C-10.67 5.35 -10.34 3.7 -10 2 C-10.66 1.67 -11.32 1.34 -12 1 C-8.00439392 -1.83022097 -4.57262677 -0.76210446 0 0 Z M-9 1 C-9 1.66 -9 2.32 -9 3 C-8.34 3 -7.68 3 -7 3 C-7 2.34 -7 1.68 -7 1 C-7.66 1 -8.32 1 -9 1 Z " fill="#979797" transform="translate(431,324)"/>
<path d="M0 0 C-0.66 2.64 -1.32 5.28 -2 8 C-3 4 -3 4 -2 2 C-6.72493877 1.80312755 -10.52075255 2.29643638 -15.06640625 3.5546875 C-17.73127393 4.1684146 -20.28048012 4.13597599 -23 4 C-23 3.67 -23 3.34 -23 3 C-20.48279191 2.29590698 -17.96274181 1.61163944 -15.4375 0.9375 C-14.73302734 0.73833984 -14.02855469 0.53917969 -13.30273438 0.33398438 C-8.45951166 -0.93819855 -4.90847177 -1.02555455 0 0 Z " fill="#CCCCCC" transform="translate(361,284)"/>
<path d="M0 0 C7.26 0 14.52 0 22 0 C20 2 20 2 17 3 C16.34 2.67 15.68 2.34 15 2 C12.99199544 2.28112064 10.98985949 2.61067967 9 3 C9 2.34 9 1.68 9 1 C8.2575 1.20625 7.515 1.4125 6.75 1.625 C4 2 4 2 0 0 Z " fill="#B6B6B6" transform="translate(448,482)"/>
<path d="M0 0 C0 3.77910478 -0.99703962 4.46106101 -3.5 7.1875 C-4.1496875 7.90292969 -4.799375 8.61835938 -5.46875 9.35546875 C-5.9740625 9.89816406 -6.479375 10.44085938 -7 11 C-8.32 10.34 -9.64 9.68 -11 9 C-9.73113036 7.87278564 -8.45982438 6.74831342 -7.1875 5.625 C-6.47980469 4.99851562 -5.77210938 4.37203125 -5.04296875 3.7265625 C-3 2 -3 2 0 0 Z " fill="#818181" transform="translate(259,344)"/>
<path d="M0 0 C0.33 0.66 0.66 1.32 1 2 C-1.9752075 6.00508702 -4.97398207 9.0875615 -9 12 C-9.99 11.67 -10.98 11.34 -12 11 C-11.113125 10.278125 -10.22625 9.55625 -9.3125 8.8125 C-6.37079825 6.36572911 -3.66830766 3.74454502 -1 1 C-0.67 0.67 -0.34 0.34 0 0 Z " fill="#A0A0A0" transform="translate(393,279)"/>
<path d="M0 0 C0.33 0 0.66 0 1 0 C1.33 2.64 1.66 5.28 2 8 C1.01 8.66 0.02 9.32 -1 10 C-2.19232613 12.05003955 -2.19232613 12.05003955 -3 14 C-3.6875 11.8125 -3.6875 11.8125 -4 9 C-2.625 6.4375 -2.625 6.4375 -1 4 C-0.30420546 1.80869466 -0.30420546 1.80869466 0 0 Z " fill="#7D7D7D" transform="translate(187,124)"/>
<path d="M0 0 C0.75 1.6875 0.75 1.6875 1 4 C-0.8125 6.75 -0.8125 6.75 -3 9 C-3.66 9 -4.32 9 -5 9 C-5 9.99 -5 10.98 -5 12 C-5.66 12 -6.32 12 -7 12 C-5.87548273 9.0280615 -4.77706209 6.66559313 -3 4 C-2.34 4 -1.68 4 -1 4 C-0.67 2.68 -0.34 1.36 0 0 Z " fill="#919191" transform="translate(239,73)"/>
<path d="M0 0 C0.66 0.33 1.32 0.66 2 1 C-1.36100934 3.20866328 -4.02934001 4.404401 -8 5 C-8.928125 5.185625 -9.85625 5.37125 -10.8125 5.5625 C-11.534375 5.706875 -12.25625 5.85125 -13 6 C-12 4 -12 4 -10.0390625 3.18359375 C-9.24242187 2.93738281 -8.44578125 2.69117188 -7.625 2.4375 C-6.83351562 2.18871094 -6.04203125 1.93992187 -5.2265625 1.68359375 C-4.12441406 1.34521484 -4.12441406 1.34521484 -3 1 C-2.01 0.67 -1.02 0.34 0 0 Z " fill="#828282" transform="translate(172,402)"/>
<path d="M0 0 C0.33 0.99 0.66 1.98 1 3 C0.195625 3.763125 -0.60875 4.52625 -1.4375 5.3125 C-4.16799024 7.79430898 -4.16799024 7.79430898 -5 11 C-5.66 11 -6.32 11 -7 11 C-5.5140084 6.40693504 -3.14985318 3.56430755 0 0 Z " fill="#686868" transform="translate(136,221)"/>
<path d="M0 0 C0.33 0 0.66 0 1 0 C1.83861979 5.36716665 -1.07929595 8.79627239 -4 13 C-5 10 -5 10 -4.00390625 7.51953125 C-3.52824219 6.62621094 -3.05257813 5.73289063 -2.5625 4.8125 C-2.08941406 3.91144531 -1.61632812 3.01039063 -1.12890625 2.08203125 C-0.75636719 1.39496094 -0.38382812 0.70789063 0 0 Z " fill="#A7A7A7" transform="translate(366,156)"/>
<path d="M0 0 C2.00124361 0.32578384 4.00102872 0.66055205 6 1 C7.99965715 1.03703069 10.00056665 1.04760556 12 1 C12 1.33 12 1.66 12 2 C10.56342755 2.33730842 9.12569907 2.66969591 7.6875 3 C6.48673828 3.2784375 6.48673828 3.2784375 5.26171875 3.5625 C3 4 3 4 0 4 C-0.33 3.01 -0.66 2.02 -1 1 C-0.67 0.67 -0.34 0.34 0 0 Z " fill="#A8A8A8" transform="translate(293,272)"/>
<path d="M0 0 C0 4.30269952 -2.2009571 5.8677377 -5 9 C-5.66 9.66 -6.32 10.32 -7 11 C-7.4375 8.875 -7.4375 8.875 -7 6 C-4.87310854 3.723853 -2.4976567 1.8541278 0 0 Z " fill="#A6A6A6" transform="translate(363,309)"/>
<path d="M0 0 C0.66 0 1.32 0 2 0 C2 2.31 2 4.62 2 7 C0.68 6.67 -0.64 6.34 -2 6 C-1.34 4.02 -0.68 2.04 0 0 Z " fill="#C9C9C9" transform="translate(169,291)"/>
<path d="M0 0 C0 0.66 0 1.32 0 2 C-2.91482778 2.80967438 -4.46113217 3.21845993 -7.3125 2.0625 C-7.869375 1.711875 -8.42625 1.36125 -9 1 C-2.25 -1.125 -2.25 -1.125 0 0 Z " fill="#D9D9D9" transform="translate(414,330)"/>
<path d="M0 0 C0.33 0 0.66 0 1 0 C0.67 2.31 0.34 4.62 0 7 C-0.66 7 -1.32 7 -2 7 C-2.33 7.99 -2.66 8.98 -3 10 C-2.49287967 6.28111761 -1.88391785 3.26545761 0 0 Z " fill="#989898" transform="translate(338,226)"/>
<path d="M0 0 C1.65 0 3.3 0 5 0 C4.01 0.66 3.02 1.32 2 2 C1.27034634 4.56282742 1.27034634 4.56282742 1 7 C-1 4 -1 4 -0.625 1.8125 C-0.41875 1.214375 -0.2125 0.61625 0 0 Z " fill="#8A8A8A" transform="translate(160,209)"/>
<path d="" fill="#FFFFFF" transform="translate(0,0)"/>
<path d="" fill="#FFFFFF" transform="translate(0,0)"/>
<path d="" fill="#FFFFFF" transform="translate(0,0)"/>
</svg>
